<svg width="166" height="39" viewBox="0 0 166 39" fill="none" xmlns="http://www.w3.org/2000/svg">
<path d="M0.359375 21.9401V8.50006H6.75938V20.5401C6.75938 21.8201 7.01271 22.8067 7.51938 23.5001C8.02604 24.1667 8.74604 24.5001 9.67938 24.5001C10.266 24.5001 10.826 24.4067 11.3594 24.2201C11.8927 24.0067 12.4127 23.6734 12.9194 23.2201C13.426 22.7667 13.8794 22.1801 14.2794 21.4601V8.50006H20.6794V22.3801C20.6794 23.0201 20.7727 23.4734 20.9594 23.7401C21.1727 23.9801 21.5327 24.1267 22.0394 24.1801V29.5001C21.4527 29.6067 20.9327 29.6867 20.4794 29.7401C20.0527 29.7934 19.666 29.8201 19.3194 29.8201C18.1994 29.8201 17.306 29.5934 16.6394 29.1401C15.9727 28.6601 15.5594 27.9934 15.3994 27.1401L15.2794 25.8601C14.3194 27.2467 13.1194 28.2734 11.6794 28.9401C10.266 29.5801 8.67938 29.9001 6.91938 29.9001C4.78604 29.9001 3.15938 29.2201 2.03938 27.8601C0.919375 26.5001 0.359375 24.5267 0.359375 21.9401ZM38.9575 13.9801C37.4108 13.9801 36.0108 14.2334 34.7575 14.7401C33.5042 15.2201 32.5975 15.9401 32.0375 16.9001V29.5001H25.6375V8.50006H31.5175V12.7401C32.2375 11.3267 33.1708 10.2201 34.3175 9.42006C35.4642 8.62006 36.6642 8.20673 37.9175 8.18006C38.2108 8.18006 38.4242 8.18006 38.5575 8.18006C38.7175 8.18006 38.8508 8.19339 38.9575 8.22006V13.9801ZM51.5369 29.9001C49.7502 29.9001 48.1635 29.6201 46.7769 29.0601C45.3902 28.4734 44.2035 27.6867 43.2169 26.7001C42.2569 25.7134 41.5235 24.5801 41.0169 23.3001C40.5102 21.9934 40.2569 20.6334 40.2569 19.2201C40.2569 17.1934 40.6969 15.3534 41.5769 13.7001C42.4835 12.0201 43.7769 10.6734 45.4569 9.66006C47.1369 8.62006 49.1635 8.10006 51.5369 8.10006C53.9102 8.10006 55.9235 8.60673 57.5769 9.62006C59.2569 10.6334 60.5369 11.9667 61.4169 13.6201C62.2969 15.2467 62.7369 17.0201 62.7369 18.9401C62.7369 19.3134 62.7102 19.6867 62.6569 20.0601C62.6302 20.4067 62.6035 20.7134 62.5769 20.9801H47.0569C47.1369 21.9134 47.3902 22.7001 47.8169 23.3401C48.2702 23.9801 48.8435 24.4734 49.5369 24.8201C50.2302 25.1401 50.9635 25.3001 51.7369 25.3001C52.6969 25.3001 53.5902 25.0734 54.4169 24.6201C55.2702 24.1667 55.8569 23.5534 56.1769 22.7801L61.6169 24.3001C61.0835 25.3934 60.3235 26.3667 59.3369 27.2201C58.3769 28.0467 57.2302 28.7001 55.8969 29.1801C54.5902 29.6601 53.1369 29.9001 51.5369 29.9001ZM46.8969 17.0601H56.0169C55.9102 16.1801 55.6569 15.4201 55.2569 14.7801C54.8569 14.1134 54.3235 13.6067 53.6569 13.2601C52.9902 12.8867 52.2569 12.7001 51.4569 12.7001C50.6302 12.7001 49.8835 12.8867 49.2169 13.2601C48.5769 13.6067 48.0569 14.1134 47.6569 14.7801C47.2569 15.4201 47.0035 16.1801 46.8969 17.0601ZM75.6775 29.9001C73.8908 29.9001 72.3042 29.6067 70.9175 29.0201C69.5308 28.4334 68.3442 27.6334 67.3575 26.6201C66.3975 25.6067 65.6642 24.4467 65.1575 23.1401C64.6508 21.8334 64.3975 20.4467 64.3975 18.9801C64.3975 17.0601 64.8375 15.2734 65.7175 13.6201C66.6242 11.9667 67.9175 10.6334 69.5975 9.62006C71.2775 8.60673 73.3042 8.10006 75.6775 8.10006C78.0775 8.10006 80.1042 8.62006 81.7575 9.66006C83.4375 10.6734 84.6908 12.0067 85.5175 13.6601L79.2775 15.5401C78.8775 14.9001 78.3575 14.4067 77.7175 14.0601C77.1042 13.7134 76.4108 13.5401 75.6375 13.5401C74.7575 13.5401 73.9575 13.7667 73.2375 14.2201C72.5442 14.6734 71.9842 15.3001 71.5575 16.1001C71.1575 16.9001 70.9575 17.8601 70.9575 18.9801C70.9575 20.0734 71.1708 21.0334 71.5975 21.8601C72.0242 22.6867 72.5842 23.3401 73.2775 23.8201C73.9708 24.2734 74.7575 24.5001 75.6375 24.5001C76.1708 24.5001 76.6642 24.4201 77.1175 24.2601C77.5975 24.0734 78.0242 23.8201 78.3975 23.5001C78.7975 23.1801 79.1042 22.8201 79.3175 22.4201L85.5575 24.3401C85.0508 25.4067 84.3175 26.3667 83.3575 27.2201C82.4242 28.0467 81.3175 28.7001 80.0375 29.1801C78.7575 29.6601 77.3042 29.9001 75.6775 29.9001ZM88.45 29.5001V8.50006H94.85V29.5001H88.45ZM88.45 6.10006V0.30006H94.85V6.10006H88.45ZM112.511 29.9001C110.938 29.9001 109.565 29.5667 108.391 28.9001C107.218 28.2067 106.298 27.2734 105.631 26.1001V38.0201H99.2313V8.50006H104.791V11.9001C105.565 10.7001 106.538 9.76673 107.711 9.10006C108.885 8.43339 110.258 8.10006 111.831 8.10006C113.245 8.10006 114.538 8.38006 115.711 8.94006C116.911 9.50006 117.951 10.2734 118.831 11.2601C119.711 12.2467 120.391 13.3934 120.871 14.7001C121.351 16.0067 121.591 17.4201 121.591 18.9401C121.591 21.0201 121.205 22.8867 120.431 24.5401C119.658 26.1934 118.578 27.5001 117.191 28.4601C115.831 29.4201 114.271 29.9001 112.511 29.9001ZM110.351 24.5001C111.045 24.5001 111.671 24.3534 112.231 24.0601C112.818 23.7401 113.325 23.3267 113.751 22.8201C114.178 22.3134 114.498 21.7267 114.711 21.0601C114.951 20.3667 115.071 19.6467 115.071 18.9001C115.071 18.1267 114.938 17.4201 114.671 16.7801C114.431 16.1401 114.085 15.5801 113.631 15.1001C113.178 14.5934 112.645 14.2067 112.031 13.9401C111.418 13.6734 110.751 13.5401 110.031 13.5401C109.605 13.5401 109.165 13.6067 108.711 13.7401C108.285 13.8734 107.871 14.0734 107.471 14.3401C107.098 14.5801 106.751 14.8734 106.431 15.2201C106.111 15.5667 105.845 15.9667 105.631 16.4201V20.7401C105.925 21.4601 106.311 22.1001 106.791 22.6601C107.271 23.2201 107.818 23.6734 108.431 24.0201C109.045 24.3401 109.685 24.5001 110.351 24.5001ZM134.857 29.9001C133.071 29.9001 131.484 29.6201 130.097 29.0601C128.711 28.4734 127.524 27.6867 126.537 26.7001C125.577 25.7134 124.844 24.5801 124.337 23.3001C123.831 21.9934 123.577 20.6334 123.577 19.2201C123.577 17.1934 124.017 15.3534 124.897 13.7001C125.804 12.0201 127.097 10.6734 128.777 9.66006C130.457 8.62006 132.484 8.10006 134.857 8.10006C137.231 8.10006 139.244 8.60673 140.897 9.62006C142.577 10.6334 143.857 11.9667 144.737 13.6201C145.617 15.2467 146.057 17.0201 146.057 18.9401C146.057 19.3134 146.031 19.6867 145.977 20.0601C145.951 20.4067 145.924 20.7134 145.897 20.9801H130.377C130.457 21.9134 130.711 22.7001 131.137 23.3401C131.591 23.9801 132.164 24.4734 132.857 24.8201C133.551 25.1401 134.284 25.3001 135.057 25.3001C136.017 25.3001 136.911 25.0734 137.737 24.6201C138.591 24.1667 139.177 23.5534 139.497 22.7801L144.937 24.3001C144.404 25.3934 143.644 26.3667 142.657 27.2201C141.697 28.0467 140.551 28.7001 139.217 29.1801C137.911 29.6601 136.457 29.9001 134.857 29.9001ZM130.217 17.0601H139.337C139.231 16.1801 138.977 15.4201 138.577 14.7801C138.177 14.1134 137.644 13.6067 136.977 13.2601C136.311 12.8867 135.577 12.7001 134.777 12.7001C133.951 12.7001 133.204 12.8867 132.537 13.2601C131.897 13.6067 131.377 14.1134 130.977 14.7801C130.577 15.4201 130.324 16.1801 130.217 17.0601ZM156.998 29.9001C155.211 29.9001 153.464 29.6067 151.758 29.0201C150.051 28.4334 148.611 27.5667 147.438 26.4201L149.638 22.3801C150.918 23.3134 152.158 24.0201 153.358 24.5001C154.584 24.9801 155.731 25.2201 156.798 25.2201C157.624 25.2201 158.264 25.0867 158.718 24.8201C159.171 24.5534 159.398 24.1401 159.398 23.5801C159.398 23.1801 159.264 22.8734 158.998 22.6601C158.731 22.4201 158.318 22.2067 157.758 22.0201C157.224 21.8334 156.558 21.6334 155.758 21.4201C154.158 20.8867 152.824 20.3667 151.758 19.8601C150.691 19.3534 149.891 18.7401 149.358 18.0201C148.824 17.2734 148.558 16.3134 148.558 15.1401C148.558 13.7267 148.904 12.5001 149.598 11.4601C150.318 10.3934 151.331 9.56673 152.638 8.98006C153.944 8.39339 155.504 8.10006 157.318 8.10006C158.758 8.10006 160.158 8.32673 161.518 8.78006C162.904 9.23339 164.198 9.99339 165.398 11.0601L162.918 15.0601C161.718 14.2334 160.651 13.6334 159.718 13.2601C158.784 12.8867 157.878 12.7001 156.998 12.7001C156.544 12.7001 156.131 12.7534 155.758 12.8601C155.384 12.9667 155.078 13.1534 154.838 13.4201C154.624 13.6601 154.518 13.9801 154.518 14.3801C154.518 14.7801 154.624 15.1001 154.838 15.3401C155.078 15.5801 155.438 15.7934 155.918 15.9801C156.424 16.1401 157.051 16.3401 157.798 16.5801C159.531 17.0867 160.971 17.6067 162.118 18.1401C163.264 18.6467 164.118 19.2867 164.678 20.0601C165.264 20.8067 165.558 21.8067 165.558 23.0601C165.558 25.1934 164.784 26.8734 163.238 28.1001C161.718 29.3001 159.638 29.9001 156.998 29.9001Z" fill="#021E40"/>
</svg>
