<svg id="Capa_1" data-name="Capa 1" xmlns="http://www.w3.org/2000/svg" viewBox="0 0 471.57 373.32"><defs><style>.cls-1{fill:#c5bba2;}</style></defs><title>r-icon-reservation</title><path class="cls-1" d="M4.22,407.51c0,11.79,7.86,19.65,19.65,19.65H456.13c11.79,0,19.65-7.86,19.65-19.65H4.22Z" transform="translate(-4.22 -53.84)"/><path class="cls-1" d="M436.49,348.57h39.3c0-123.79-94.31-224-216.13-233.82V93.14H279.3c11.79,0,19.65-7.86,19.65-19.65s-7.86-19.65-19.65-19.65H200.7c-11.79,0-19.65,7.86-19.65,19.65s7.86,19.65,19.65,19.65h19.65v21.61C98.53,124.57,4.22,224.78,4.22,348.57H436.49ZM240,130.47c106.1,0,198.45,86.45,218.1,202.38H21.9C41.55,215,133.9,130.47,240,130.47Z" transform="translate(-4.22 -53.84)"/><path class="cls-1" d="M328.42,195.31L318.59,213c29.47,17.68,53.05,43.23,66.81,74.66l17.68-7.86C389.33,244.43,361.82,215,328.42,195.31Z" transform="translate(-4.22 -53.84)"/></svg>