<svg width="24" height="24" viewBox="0 0 24 24" fill="none" xmlns="http://www.w3.org/2000/svg">
<path d="M23.4374 5.92276C22.7894 3.57601 20.9781 1.76476 18.6794 1.12801L18.6314 1.11676C18.1124 0.987763 17.5169 0.913513 16.9034 0.913513C14.9564 0.913513 13.1834 1.66201 11.8581 2.88676L11.8634 2.88226C10.6589 1.82626 9.07038 1.18126 7.33113 1.18126C6.72588 1.18126 6.13938 1.25926 5.57988 1.40551L5.62788 1.39501C3.17088 2.09326 1.27488 3.98851 0.589379 6.39451L0.576629 6.44551C0.445379 6.95401 0.369629 7.53826 0.369629 8.13976C0.369629 10.1828 1.24038 12.0233 2.63088 13.3088L2.63538 13.3133L11.1711 22.7775C11.3436 22.968 11.5919 23.0865 11.8679 23.0865C12.1439 23.0865 12.3921 22.9673 12.5639 22.7783L12.5646 22.7775L21.0831 13.3305C22.6491 11.9228 23.6301 9.89026 23.6301 7.62901C23.6301 7.02376 23.5596 6.43501 23.4269 5.87026L23.4374 5.92201V5.92276Z" fill="#FF795B"/>
</svg>
