<svg width="25" height="24" viewBox="0 0 25 24" fill="none" xmlns="http://www.w3.org/2000/svg">
<g clip-path="url(#clip0_13_42)">
<path d="M12.6301 0C10.2568 0 7.93668 0.703788 5.96329 2.02236C3.9899 3.34094 2.45183 5.21509 1.54358 7.4078C0.635326 9.60051 0.397686 12.0133 0.860709 14.3411C1.32373 16.6689 2.46662 18.8071 4.14485 20.4853C5.82308 22.1635 7.96128 23.3064 10.289 23.7694C12.6168 24.2324 15.0296 23.9948 17.2223 23.0866C19.415 22.1783 21.2892 20.6402 22.6078 18.6668C23.9263 16.6935 24.6301 14.3734 24.6301 12C24.6267 8.81846 23.3613 5.76821 21.1116 3.51852C18.8619 1.26883 15.8117 0.00344108 12.6301 0ZM12.6301 22C10.6523 22 8.71892 21.4135 7.07443 20.3147C5.42994 19.2159 4.14821 17.6541 3.39134 15.8268C2.63446 13.9996 2.43643 11.9889 2.82228 10.0491C3.20813 8.10929 4.16054 6.32746 5.55906 4.92893C6.95759 3.53041 8.73942 2.578 10.6792 2.19215C12.619 1.8063 14.6297 2.00433 16.457 2.7612C18.2842 3.51808 19.846 4.79981 20.9448 6.4443C22.0436 8.08879 22.6301 10.0222 22.6301 12C22.6272 14.6513 21.5727 17.1931 19.698 19.0679C17.8233 20.9426 15.2814 21.9971 12.6301 22Z" fill="#FF795B"/>
<path d="M18.1451 14.143L13.6301 11.434V6C13.6301 5.73478 13.5248 5.48043 13.3372 5.29289C13.1497 5.10536 12.8953 5 12.6301 5C12.3649 5 12.1106 5.10536 11.923 5.29289C11.7355 5.48043 11.6301 5.73478 11.6301 6V12C11.6368 12.1712 11.6844 12.3382 11.7687 12.4873C11.8531 12.6364 11.9719 12.7631 12.1151 12.857L17.1151 15.857C17.2277 15.9275 17.3533 15.9748 17.4844 15.9962C17.6155 16.0176 17.7495 16.0127 17.8787 15.9818C18.0079 15.9508 18.1296 15.8944 18.2367 15.8159C18.3439 15.7373 18.4343 15.6382 18.5027 15.5244C18.5712 15.4105 18.6162 15.2842 18.6353 15.1527C18.6543 15.0212 18.647 14.8873 18.6137 14.7587C18.5804 14.6301 18.5218 14.5094 18.4414 14.4037C18.3609 14.298 18.2602 14.2094 18.1451 14.143Z" fill="#FF795B"/>
</g>
<defs>
<clipPath id="clip0_13_42">
<rect width="24" height="24" fill="white" transform="translate(0.630127)"/>
</clipPath>
</defs>
</svg>
