<svg width="17" height="18" viewBox="0 0 17 18" fill="none" xmlns="http://www.w3.org/2000/svg">
<path d="M11.7489 11.321L15.7348 15.3069C16.1253 15.6974 16.1253 16.3306 15.7348 16.7211C15.3443 17.1116 14.7111 17.1116 14.3206 16.7211L10.3347 12.7352C9.2597 13.5219 7.9341 13.9863 6.5 13.9863C2.91015 13.9863 0 11.0762 0 7.48628C0 3.89643 2.91015 0.986282 6.5 0.986282C10.0899 0.986282 13 3.89643 13 7.48628C13 8.92038 12.5356 10.246 11.7489 11.321ZM6.5 11.9863C8.9853 11.9863 11 9.97158 11 7.48628C11 5.001 8.9853 2.98628 6.5 2.98628C4.01472 2.98628 2 5.001 2 7.48628C2 9.97158 4.01472 11.9863 6.5 11.9863Z" fill="#808BA8"/>
<path d="M11.7489 11.321L15.7348 15.3069C16.1253 15.6974 16.1253 16.3306 15.7348 16.7211C15.3443 17.1116 14.7111 17.1116 14.3206 16.7211L10.3347 12.7352C9.2597 13.5219 7.9341 13.9863 6.5 13.9863C2.91015 13.9863 0 11.0762 0 7.48628C0 3.89643 2.91015 0.986282 6.5 0.986282C10.0899 0.986282 13 3.89643 13 7.48628C13 8.92038 12.5356 10.246 11.7489 11.321ZM6.5 11.9863C8.9853 11.9863 11 9.97158 11 7.48628C11 5.001 8.9853 2.98628 6.5 2.98628C4.01472 2.98628 2 5.001 2 7.48628C2 9.97158 4.01472 11.9863 6.5 11.9863Z" fill="black" fill-opacity="0.2"/>
</svg>
