<svg width="16" height="16" viewBox="0 0 16 16" fill="none" xmlns="http://www.w3.org/2000/svg">
<path d="M15.0623 7.26221H8.6677V0.902755C8.6677 0.481133 8.35148 0.164917 7.92986 0.164917C7.50824 0.164917 7.19202 0.481133 7.19202 0.902755V7.29735H0.832564C0.410943 7.26221 0.0947266 7.57843 0.0947266 8.00005C0.0947266 8.42167 0.410943 8.73789 0.832564 8.73789H7.22716V15.1325C7.22716 15.5541 7.54338 15.8703 7.965 15.8703C8.38662 15.8703 8.70284 15.5541 8.70284 15.1325V8.70275H15.0974C15.5191 8.70275 15.8353 8.38654 15.8353 7.96492C15.8353 7.5433 15.4488 7.26221 15.0623 7.26221Z" fill="white"/>
</svg>
