<svg width="32" height="32" viewBox="0 0 32 32" fill="none" xmlns="http://www.w3.org/2000/svg">
<path d="M15.9999 0C12.2007 0.000157543 8.52552 1.35217 5.63195 3.81413C2.73837 6.27609 0.81524 9.68733 0.206655 13.4375C-0.401929 17.1876 0.34375 21.032 2.31027 24.2826C4.27678 27.5333 7.33581 29.9782 10.94 31.1798C11.74 31.3198 12.04 30.8398 12.04 30.4198C12.04 30.0398 12.02 28.7798 12.02 27.4398C7.99999 28.1798 6.95999 26.4599 6.64 25.5599C6.28492 24.6846 5.72204 23.9089 5.00001 23.2998C4.44001 22.9998 3.64002 22.2598 4.97999 22.2399C5.49165 22.2954 5.98238 22.4734 6.41061 22.7589C6.83883 23.0444 7.19194 23.4289 7.43999 23.8798C7.65882 24.2729 7.95308 24.619 8.30589 24.8982C8.6587 25.1774 9.06314 25.3842 9.49603 25.5069C9.92892 25.6295 10.3817 25.6655 10.8286 25.6128C11.2754 25.5601 11.7074 25.4198 12.0999 25.1998C12.1692 24.3864 12.5317 23.6259 13.12 23.0599C9.55998 22.6599 5.84 21.2798 5.84 15.1599C5.81752 13.5698 6.40429 12.0313 7.47999 10.86C6.99085 9.47793 7.04808 7.96125 7.63999 6.62C7.63999 6.62 8.97993 6.19999 12.04 8.25999C14.658 7.53995 17.4219 7.53995 20.0399 8.25999C23.0998 6.18 24.4399 6.62 24.4399 6.62C25.0319 7.96123 25.0891 9.47794 24.5999 10.86C25.6788 12.0293 26.2661 13.5691 26.2399 15.1599C26.2399 21.2999 22.4999 22.6599 18.9399 23.0599C19.3217 23.4469 19.6158 23.9116 19.8022 24.4223C19.9885 24.933 20.0628 25.4779 20.0199 26.0199C20.0199 28.1599 19.9999 29.8798 19.9999 30.4198C19.9999 30.8398 20.2999 31.3398 21.0999 31.1798C24.6977 29.9684 27.748 27.5178 29.7061 24.2655C31.6642 21.0132 32.4028 17.1708 31.79 13.4243C31.1772 9.67776 29.2529 6.27095 26.3606 3.81199C23.4683 1.35303 19.7962 0.00197584 15.9999 0Z" fill="#DEE8FF"/>
</svg>
