<svg width="32" height="32" viewBox="0 0 32 32" fill="none" xmlns="http://www.w3.org/2000/svg">
<g clip-path="url(#clip0_14_592)">
<path d="M26.8537 31.7136H5.35875C2.52059 31.7136 0.21167 29.4096 0.21167 26.5772V5.13641C0.21167 2.304 2.52059 0 5.35875 0H26.8537C29.6911 0 32 2.304 32 5.13641V26.5781C32 29.4105 29.6911 31.7136 26.8537 31.7136ZM10.953 26.2178H10.9596V12.5383H6.70357V26.2178H10.9522H10.953ZM8.8287 10.6699C9.15229 10.6704 9.47278 10.607 9.77182 10.4833C10.0709 10.3597 10.3426 10.1783 10.5714 9.94946C10.8002 9.72065 10.9816 9.44894 11.1053 9.1499C11.2289 8.85086 11.2923 8.53036 11.2919 8.20677C11.2906 7.55389 11.0306 6.92813 10.569 6.46648C10.1073 6.00482 9.48157 5.74489 8.8287 5.74359C8.17549 5.74381 7.54909 6.00339 7.0872 6.46528C6.62532 6.92717 6.36573 7.55356 6.36552 8.20677C6.36573 8.85998 6.62532 9.48637 7.0872 9.94826C7.54909 10.4101 8.17549 10.6697 8.8287 10.6699ZM26.8783 26.2187V18.7192C26.8783 15.0343 26.0783 12.1994 21.7788 12.1994C19.712 12.1994 18.3245 13.3317 17.7542 14.4066H17.6968V12.5383H13.6213V26.2178H17.8699V19.4486C17.8699 17.6632 18.2088 15.936 20.4217 15.936C22.5977 15.936 22.6297 17.9774 22.6297 19.5635V26.2178H26.8783V26.2187Z" fill="#DEE8FF"/>
</g>
<defs>
<clipPath id="clip0_14_592">
<rect width="32" height="32" fill="white"/>
</clipPath>
</defs>
</svg>
