<svg width="21" height="24" viewBox="0 0 21 24" fill="none" xmlns="http://www.w3.org/2000/svg">
<path d="M4.19671 0C2.32281 0.000365521 0.79834 1.52508 0.79834 3.39886V20.6013C0.79834 22.4752 2.32281 23.9999 4.19683 24.0001H20.2383C20.6589 24.0001 20.9998 23.6592 20.9998 23.2386V20.6013V17.9639V6.03622V0.761502C20.9998 0.340909 20.6589 0 20.2383 0H4.19671ZM4.19683 1.523H19.4768V6.03622V17.2023H4.19671C3.50381 17.2024 2.85915 17.4114 2.32134 17.7687V3.39886C2.32134 2.36468 3.16277 1.52313 4.19683 1.523ZM19.4768 22.477H4.19696C3.16277 22.4769 2.32134 21.6353 2.32134 20.6011C2.32134 19.567 3.16265 18.7254 4.19683 18.7253H19.4768V19.8396H7.48653C7.06593 19.8396 6.72502 20.1805 6.72502 20.6011C6.72502 21.0217 7.06593 21.3626 7.48653 21.3626H19.4768V22.477Z" fill="#FBFBFB"/>
<path d="M7.85396 10.6854V13.5686C7.85396 13.9892 8.19487 14.3301 8.61547 14.3301H13.1828C13.6034 14.3301 13.9443 13.9892 13.9443 13.5686V10.6855C14.9504 10.2816 15.6479 9.29497 15.6479 8.16721C15.6479 6.71305 14.498 5.52254 13.06 5.45699C12.553 4.78614 11.7631 4.38589 10.8992 4.38589C10.035 4.38589 9.24526 4.78614 8.7384 5.45699C7.3002 5.52254 6.15039 6.71317 6.15039 8.16721C6.15039 9.29509 6.84793 10.2816 7.85396 10.6854ZM8.86353 6.9772C8.92116 6.9772 8.97977 6.98146 9.03813 6.98999C9.36539 7.03836 9.68547 6.86985 9.83155 6.57354C10.0339 6.16367 10.4432 5.9089 10.8995 5.9089C11.3557 5.9089 11.7649 6.16367 11.9675 6.57378C12.1137 6.8701 12.4353 7.03812 12.7611 6.98999C12.8191 6.98146 12.8776 6.9772 12.9352 6.9772C13.5914 6.9772 14.1253 7.5111 14.1253 8.16733C14.1253 8.76496 13.679 9.2723 13.0873 9.34736C12.7069 9.39561 12.4216 9.71934 12.4216 10.1028V12.8071H9.37697V10.1531C9.37697 10.1522 9.37709 10.1513 9.37709 10.1505C9.40231 9.74931 9.11123 9.39756 8.71245 9.34724C8.12006 9.27255 7.6734 8.76533 7.6734 8.16721C7.6734 7.51098 8.2073 6.9772 8.86353 6.9772Z" fill="#FBFBFB"/>
</svg>
